<?xml version="1.0" encoding="utf-8"?>
<!-- Svg Vector Icons : http://www.onlinewebfonts.com/icon -->
<!DOCTYPE svg PUBLIC "-//W3C//DTD SVG 1.1//EN" "http://www.w3.org/Graphics/SVG/1.1/DTD/svg11.dtd">
<svg version="1.1" xmlns="http://www.w3.org/2000/svg" xmlns:xlink="http://www.w3.org/1999/xlink" x="0px" y="0px" viewBox="0 0 1000 1000" enable-background="new 0 0 1000 1000" xml:space="preserve">
<metadata> Svg Vector Icons : http://www.onlinewebfonts.com/icon </metadata>
<g><path d="M499.6,389.3c-36.7,0-66.4,29.7-66.4,66.4v200.9c0,36.7,29.7,66.4,66.4,66.4c36.7,0,66.4-29.7,66.4-66.4V455.7C566,419,536.2,389.3,499.6,389.3z"/><path d="M435.1,255.6c0,36.1,29.3,65.4,65.4,65.4c36.1,0,65.4-29.3,65.4-65.4c0-36.1-29.3-65.4-65.4-65.4C464.4,190.2,435.1,219.5,435.1,255.6z"/><path d="M945.4,334c-0.6-18-15.3-32.4-33.5-32.4c-18.6,0-33.6,15.1-33.6,33.6c0,1.6,0.3,3,0.5,4.5v327.7c0,79.9-65,144.8-144.8,144.8H585l-84.8,104.4l-86.1-104.4H266c-79.9,0-144.8-65-144.8-144.8V221.7c0-79.9,65-144.8,144.8-144.8h468c71,0,131.9,52.5,142.7,122.5c0,0.3-0.1,0.6-0.1,0.9c0,18.7,15.2,33.9,33.9,33.9c18.7,0,33.9-15.2,33.9-33.9c0-2.7-0.4-5.4-1-7.9h0.1C929,88.4,838.9,10,734,10H266C149.3,10,54.3,105,54.3,221.7v445.7c0,116.7,95,211.7,211.7,211.7h116.6l71.2,86.2c3.1,4.1,19.9,24.5,46.7,24.7c0.1,0,0.3,0,0.4,0c12.2,0,29.9-4.2,45.2-23.8l70.8-87.2h117c116.7,0,211.7-95,211.7-211.7V334H945.4z"/></g>
</svg>